<svg viewBox="0 0 500 500" xmlns="http://www.w3.org/2000/svg" xmlns:bx="https://boxy-svg.com">
  <defs></defs>
  <path style="stroke: rgb(255, 255, 255); paint-order: fill; fill: rgb(255, 255, 255);" transform="matrix(0.970598, 0, 0, 0.970598, -432.494476, -194.178192)" d="M 702 219.4 L 702 219.4 L 725.491607181 309.079829581 A 150.169 150.169 0 0 1 725.491607181 309.079829581 L 775.546044661 231.048549122 L 775.546044661 231.048549122 L 770.175299355 323.598441269 A 150.169 150.169 0 0 1 770.175299355 323.598441269 L 841.892890046 264.853955339 L 841.892890046 264.853955339 L 808.185518224 351.214481776 A 150.169 150.169 0 0 1 808.185518224 351.214481776 L 894.546044661 317.507109954 L 894.546044661 317.507109954 L 835.801558731 389.224700645 A 150.169 150.169 0 0 1 835.801558731 389.224700645 L 928.351450878 383.853955339 L 928.351450878 383.853955339 L 850.320170419 433.908392819 A 150.169 150.169 0 0 1 850.320170419 433.908392819 L 940 457.4 L 940 457.4 L 850.320170419 480.891607181 A 150.169 150.169 0 0 1 850.320170419 480.891607181 L 928.351450878 530.946044661 L 928.351450878 530.946044661 L 835.801558731 525.575299355 A 150.169 150.169 0 0 1 835.801558731 525.575299355 L 894.546044661 597.292890046 L 894.546044661 597.292890046 L 808.185518224 563.585518224 A 150.169 150.169 0 0 1 808.185518224 563.585518224 L 841.892890046 649.946044661 L 841.892890046 649.946044661 L 770.175299355 591.201558731 A 150.169 150.169 0 0 1 770.175299355 591.201558731 L 775.546044661 683.751450878 L 775.546044661 683.751450878 L 725.491607181 605.720170419 A 150.169 150.169 0 0 1 725.491607181 605.720170419 L 702 695.4 L 702 695.4 L 678.508392819 605.720170419 A 150.169 150.169 0 0 1 678.508392819 605.720170419 L 628.453955339 683.751450878 L 628.453955339 683.751450878 L 633.824700645 591.201558731 A 150.169 150.169 0 0 1 633.824700645 591.201558731 L 562.107109954 649.946044661 L 562.107109954 649.946044661 L 595.814481776 563.585518224 A 150.169 150.169 0 0 1 595.814481776 563.585518224 L 509.453955339 597.292890046 L 509.453955339 597.292890046 L 568.198441269 525.575299355 A 150.169 150.169 0 0 1 568.198441269 525.575299355 L 475.648549122 530.946044661 L 475.648549122 530.946044661 L 553.679829581 480.891607181 A 150.169 150.169 0 0 1 553.679829581 480.891607181 L 464 457.4 L 464 457.4 L 553.679829581 433.908392819 A 150.169 150.169 0 0 1 553.679829581 433.908392819 L 475.648549122 383.853955339 L 475.648549122 383.853955339 L 568.198441269 389.224700645 A 150.169 150.169 0 0 1 568.198441269 389.224700645 L 509.453955339 317.507109954 L 509.453955339 317.507109954 L 595.814481776 351.214481776 A 150.169 150.169 0 0 1 595.814481776 351.214481776 L 562.107109954 264.853955339 L 562.107109954 264.853955339 L 633.824700645 323.598441269 A 150.169 150.169 0 0 1 633.824700645 323.598441269 L 628.453955339 231.048549122 L 628.453955339 231.048549122 L 678.508392819 309.079829581 A 150.169 150.169 0 0 1 678.508392819 309.079829581 Z M 702 457.4 A 0 0 0 0 0 702 457.4 A 0 0 0 0 0 702 457.4" bx:shape="cog 702 457.4 0 150.169 238 1 20 1@71202e64"></path>
</svg>