<svg viewBox="0 0 500 500" xmlns="http://www.w3.org/2000/svg" xmlns:bx="https://boxy-svg.com">
  <defs></defs>
  <path style="stroke: rgb(255, 255, 255); paint-order: fill; fill: rgb(255, 255, 255);" transform="matrix(0.970598, 0, 0, 0.970598, -432.494476, -194.178192)" d="M 702 219.4 L 702 219.4 L 759.467188355 318.661934482 A 150.169 150.169 0 0 1 759.467188355 318.661934482 L 870.291413922 289.108586078 L 870.291413922 289.108586078 L 840.738065518 399.932811645 A 150.169 150.169 0 0 1 840.738065518 399.932811645 L 940 457.4 L 940 457.4 L 840.738065518 514.867188355 A 150.169 150.169 0 0 1 840.738065518 514.867188355 L 870.291413922 625.691413922 L 870.291413922 625.691413922 L 759.467188355 596.138065518 A 150.169 150.169 0 0 1 759.467188355 596.138065518 L 702 695.4 L 702 695.4 L 644.532811645 596.138065518 A 150.169 150.169 0 0 1 644.532811645 596.138065518 L 533.708586078 625.691413922 L 533.708586078 625.691413922 L 563.261934482 514.867188355 A 150.169 150.169 0 0 1 563.261934482 514.867188355 L 464 457.4 L 464 457.4 L 563.261934482 399.932811645 A 150.169 150.169 0 0 1 563.261934482 399.932811645 L 533.708586078 289.108586078 L 533.708586078 289.108586078 L 644.532811645 318.661934482 A 150.169 150.169 0 0 1 644.532811645 318.661934482 Z M 702 457.4 A 0 0 0 0 0 702 457.4 A 0 0 0 0 0 702 457.4" bx:shape="cog 702 457.4 0 150.169 238 1 8 1@f2781920"></path>
</svg>